# xmcd
#
# Track frame offsets:
#	150
#	14688
#	26717
#	41131
#	54685
#	67926
#	80381
#	94231
#	107680
#	121082
#	135936
#	150952
#	163709
#	177509
#	191984
#	204747
#	219428
#	230353
#	244610
#	254015
#	265834
#	277069
#	289691
#	302159
#	314278
#	327855
#
# Disc length: 4566 seconds
# Revision: 0
# Processed by: cddbd v1.5.2PL0 Copyright (c) Steve Scherf et al.
# Submitted via: dBpowerAMP V12.0
#
DISCID=7a11d41a
DTITLE=BD Chanson - 164 Joséphine Baker CD1 Une Icône de L'Exotisme 1930-1953
DYEAR=2006
DGENRE=Chanson
TTITLE0=J'ai deux amours (avec Adrien Lamy)
TTITLE1=La petite Tonkinoise
TTITLE2=Dis-moi Joséphine (Gyere Josephin!)
TTITLE3=Voulez-vous de la canne à sucre (avec Adrien Lamy)
TTITLE4=Aux Îles Hawaï
TTITLE5=Si j'étais blanche
TTITLE6=Madiana (mélodie antillaise)
TTITLE7=Sans amour
TTITLE8=Les mots d'amour
TTITLE9=Haïti
TTITLE10=Sous le ciel d'Afrique
TTITLE11=Espabilate
TTITLE12=Partir sur un bateau toute blanc
TTITLE13=Doudou
TTITLE14=Nuit d'Alger
TTITLE15=Mayari
TTITLE16=Conga blicoti
TTITLE17=Mon coeur est un oiseau des îles
TTITLE18=Brasil
TTITLE19=Bahiana
TTITLE20=Boneca de pixe
TTITLE21=Romance aux étoiles (A noche hable con la luna)
TTITLE22=Minuit (Media noche)
TTITLE23=C'est ça le vrai bonheur (Esto es felicidad)
TTITLE24=Pel Canela
TTITLE25=Dans mon village
EXTD=
EXTT0=
EXTT1=
EXTT2=
EXTT3=
EXTT4=
EXTT5=
EXTT6=
EXTT7=
EXTT8=
EXTT9=
EXTT10=
EXTT11=
EXTT12=
EXTT13=
EXTT14=
EXTT15=
EXTT16=
EXTT17=
EXTT18=
EXTT19=
EXTT20=
EXTT21=
EXTT22=
EXTT23=
EXTT24=
EXTT25=
PLAYORDER=
